<?xml version="1.0" encoding="utf-8"?>
<!-- Generator: Adobe Illustrator 16.0.4, SVG Export Plug-In . SVG Version: 6.00 Build 0)  -->
<!DOCTYPE svg PUBLIC "-//W3C//DTD SVG 1.1//EN" "http://www.w3.org/Graphics/SVG/1.1/DTD/svg11.dtd">
<svg version="1.1" id="Layer_1" xmlns="http://www.w3.org/2000/svg" xmlns:xlink="http://www.w3.org/1999/xlink" x="0px" y="0px"
	 width="194.756px" height="77.564px" viewBox="0 0 194.756 77.564" enable-background="new 0 0 194.756 77.564"
	 xml:space="preserve">
<g>
	<path fill="#192E3A" d="M103.753,65.858C62.401,65.858,25.298,72.512,0,77.564C15.252,66.67,24.362,52.911,24.362,37.943
		C24.362,23.733,16.15,10.611,2.266,0c25.222,4.795,61.35,11.774,101.487,11.774c33.969,0,65.067-6.128,89.114-9.699
		c-12.297,10.228-21.452,22.18-21.452,35.476c0,13.957,9.898,27.265,23.341,37.777C170.459,71.592,138.621,65.858,103.753,65.858z"
		/>
	<g>
		<path fill="#FFFFFF" d="M42.678,27.375c0-1.337-0.575-1.983-1.929-1.983c-1.359,0-1.935,0.646-1.935,1.983v22.844
			c0,1.336,0.575,1.98,1.935,1.98c1.354,0,1.929-0.645,1.929-1.98v-4.354h3.445v4.438c0,2.631-1.774,4.312-5.374,4.312
			c-3.604,0-5.381-1.682-5.381-4.312V27.289c0-2.629,1.776-4.31,5.381-4.31c3.6,0,5.374,1.681,5.374,4.31v4.094h-3.445V27.375z"/>
		<path fill="#FFFFFF" d="M48.623,28.237c0-3.06,1.409-5.258,6.056-5.258s6.054,2.198,6.054,5.258v21.121
			c0,3.059-1.407,5.258-6.054,5.258s-6.056-2.199-6.056-5.258V28.237z M52.066,49.274c0,1.72,0.42,2.926,2.612,2.926
			c2.193,0,2.608-1.206,2.608-2.926V28.323c0-1.724-0.415-2.932-2.608-2.932c-2.192,0-2.612,1.208-2.612,2.932V49.274z"/>
		<path fill="#FFFFFF" d="M73.312,23.237h3.029v31.119h-4.908L67.1,26.685h-0.104v27.671h-3.024V23.237h5.01l4.228,26.637h0.104
			V23.237z"/>
		<path fill="#FFFFFF" d="M79.892,23.237h5.896c4.699,0,5.847,1.982,5.847,5.044v21.034c0,3.061-1.147,5.041-5.847,5.041h-5.896
			V23.237z M85.166,51.942c2.293,0,3.025-0.604,3.025-2.412V28.065c0-1.811-0.732-2.415-3.025-2.415h-1.831v26.292H85.166z"/>
		<path fill="#FFFFFF" d="M94.821,23.237h9.133v2.414h-5.689v11.336h5.431v2.415h-5.431v12.541h5.689v2.414h-9.133V23.237z"/>
		<path fill="#FFFFFF" d="M115.96,23.237h3.028v31.119h-4.907l-4.333-27.671h-0.104v27.671h-3.027V23.237h5.011l4.229,26.637h0.104
			V23.237z"/>
		<path fill="#FFFFFF" d="M129.011,27.504c0-1.208-0.367-2.112-1.984-2.112c-1.62,0-1.984,0.904-1.984,2.112v3.277
			c0,0.991,0.208,1.982,0.787,2.8l5.477,7.76c0.782,1.076,1.253,2.412,1.253,3.793v4.912c0,2.93-2.089,4.57-5.532,4.57
			c-3.812,0-5.64-1.424-5.64-4.57v-4.267h3.447v4.095c0,1.465,0.678,2.326,2.192,2.326c1.407,0,2.087-0.861,2.087-2.326V45.52
			c0-1.076-0.259-1.896-0.992-2.975l-5.062-7.283c-0.941-1.336-1.462-2.371-1.462-3.966v-3.75c0-3.06,1.931-4.568,5.429-4.568
			c3.861,0,5.427,1.508,5.427,4.354v3.964h-3.442V27.504z"/>
		<path fill="#FFFFFF" d="M135.378,23.237h9.136v2.414h-5.69v11.336h5.428v2.415h-5.428v12.541h5.69v2.414h-9.136V23.237z"/>
		<path fill="#FFFFFF" d="M147.436,23.237h5.899c4.697,0,5.846,1.982,5.846,5.044v21.034c0,3.061-1.148,5.041-5.846,5.041h-5.899
			V23.237z M152.707,51.942c2.298,0,3.031-0.604,3.031-2.412V28.065c0-1.811-0.733-2.415-3.031-2.415h-1.826v26.292H152.707z"/>
	</g>
</g>
</svg>
